<svg width="61" height="65" viewBox="0 0 61 65" fill="none" xmlns="http://www.w3.org/2000/svg">
<path d="M39.4992 19.4121C39.4992 30.1331 30.657 38.8241 19.7496 38.8241C8.84221 38.8241 0 30.1331 0 19.4121C0 8.69108 8.84221 0 19.7496 0C30.657 0 39.4992 8.69108 39.4992 19.4121ZM6.00324 19.4121C6.00324 26.8742 12.1577 32.9235 19.7496 32.9235C27.3415 32.9235 33.496 26.8742 33.496 19.4121C33.496 11.9499 27.3415 5.90063 19.7496 5.90063C12.1577 5.90063 6.00324 11.9499 6.00324 19.4121Z" fill="#BB9B73"/>
<rect width="7.70413" height="41.5488" rx="3.85206" transform="matrix(0.771234 -0.636552 0.649554 0.760315 28.0701 33.4099)" fill="#BB9B73"/>
</svg>
